<svg xmlns="http://www.w3.org/2000/svg" xmlns:xlink="http://www.w3.org/1999/xlink" width="945" zoomAndPan="magnify" viewBox="0 0 708.75 226.499993" height="302" preserveAspectRatio="xMidYMid meet" version="1.2"><defs/><g id="818244a942"><g style="fill:#150094;fill-opacity:1;"><g transform="translate(179.320444, 133.0717)"><path style="stroke:none" d="M 46.984375 1.09375 C 38.617188 1.09375 31.363281 -0.539062 25.21875 -3.8125 C 19.082031 -7.082031 14.328125 -11.695312 10.953125 -17.65625 C 7.578125 -23.613281 5.890625 -30.554688 5.890625 -38.484375 C 5.890625 -43.710938 6.867188 -48.648438 8.828125 -53.296875 C 10.785156 -57.953125 13.5625 -62.054688 17.15625 -65.609375 C 20.757812 -69.171875 25.085938 -71.96875 30.140625 -74 C 35.191406 -76.039062 40.769531 -77.0625 46.875 -77.0625 C 49.125 -77.0625 51.738281 -76.878906 54.71875 -76.515625 C 57.695312 -76.148438 60.601562 -75.585938 63.4375 -74.828125 C 66.269531 -74.066406 68.628906 -73.03125 70.515625 -71.71875 L 70.953125 -57.328125 L 69.65625 -57 C 68.195312 -60.78125 66.050781 -63.992188 63.21875 -66.640625 C 60.382812 -69.296875 57.1875 -71.347656 53.625 -72.796875 C 50.0625 -74.253906 46.46875 -74.984375 42.84375 -74.984375 C 38.113281 -74.984375 33.820312 -73.910156 29.96875 -71.765625 C 26.125 -69.628906 23.070312 -66.398438 20.8125 -62.078125 C 18.5625 -57.753906 17.398438 -52.285156 17.328125 -45.671875 C 17.253906 -40.515625 17.960938 -35.335938 19.453125 -30.140625 C 20.941406 -24.941406 23.117188 -20.179688 25.984375 -15.859375 C 28.859375 -11.535156 32.367188 -8.066406 36.515625 -5.453125 C 40.660156 -2.835938 45.347656 -1.53125 50.578125 -1.53125 C 53.992188 -1.53125 57.132812 -2.238281 60 -3.65625 C 62.875 -5.070312 65 -7.125 66.375 -9.8125 L 66.375 -19.734375 C 66.375 -24.015625 66.007812 -27.0625 65.28125 -28.875 C 64.5625 -30.695312 63.039062 -31.9375 60.71875 -32.59375 L 60.71875 -34.109375 L 77.609375 -34.109375 L 77.609375 -14.0625 C 74.921875 -10.5 71.757812 -7.609375 68.125 -5.390625 C 64.488281 -3.179688 60.816406 -1.546875 57.109375 -0.484375 C 53.410156 0.566406 50.035156 1.09375 46.984375 1.09375 Z M 46.984375 1.09375 "/></g></g><g style="fill:#150094;fill-opacity:1;"><g transform="translate(282.642803, 133.0717)"><path style="stroke:none" d="M 5.125 0 L 5.125 -1.53125 C 6.9375 -2.101562 8.113281 -3.316406 8.65625 -5.171875 C 9.207031 -7.023438 9.484375 -9.914062 9.484375 -13.84375 L 9.484375 -62.453125 C 9.484375 -66.378906 9.207031 -69.269531 8.65625 -71.125 C 8.113281 -72.976562 6.9375 -74.195312 5.125 -74.78125 L 5.125 -76.296875 L 57.4375 -76.296875 L 58.640625 -60.9375 L 57.21875 -60.609375 C 55.039062 -65.984375 52.117188 -69.648438 48.453125 -71.609375 C 44.785156 -73.578125 39.898438 -74.5625 33.796875 -74.5625 L 21.03125 -74.5625 L 21.03125 -41.859375 L 31.5 -41.859375 C 35.9375 -41.859375 39.425781 -42.144531 41.96875 -42.71875 C 44.507812 -43.300781 46.394531 -44.210938 47.625 -45.453125 C 48.863281 -46.691406 49.773438 -48.253906 50.359375 -50.140625 L 51.890625 -50.140625 L 51.890625 -31.828125 L 50.359375 -31.828125 C 49.773438 -33.710938 48.863281 -35.273438 47.625 -36.515625 C 46.394531 -37.753906 44.507812 -38.660156 41.96875 -39.234375 C 39.425781 -39.816406 35.9375 -40.109375 31.5 -40.109375 L 21.03125 -40.109375 L 21.03125 -7.1875 C 21.03125 -3.5625 22.847656 -1.75 26.484375 -1.75 L 36.953125 -1.75 C 42.472656 -1.75 47.125 -2.765625 50.90625 -4.796875 C 54.6875 -6.828125 57.59375 -10.601562 59.625 -16.125 L 61.046875 -15.90625 L 60.28125 0 Z M 5.125 0 "/></g></g><g style="fill:#150094;fill-opacity:1;"><g transform="translate(368.636106, 133.0717)"><path style="stroke:none" d="M 62.5625 0.875 L 11.4375 -63.65625 L 11.4375 -20.390625 C 11.4375 -15.953125 11.726562 -12.460938 12.3125 -9.921875 C 12.894531 -7.378906 13.800781 -5.488281 15.03125 -4.25 C 16.269531 -3.007812 17.835938 -2.101562 19.734375 -1.53125 L 19.734375 0 L 5.125 0 L 5.125 -1.53125 C 6.9375 -2.101562 8.113281 -3.316406 8.65625 -5.171875 C 9.207031 -7.023438 9.484375 -9.914062 9.484375 -13.84375 L 9.484375 -62.453125 C 9.484375 -66.378906 9.117188 -69.269531 8.390625 -71.125 C 7.660156 -72.976562 6.132812 -74.195312 3.8125 -74.78125 L 3.8125 -76.296875 L 16.125 -76.296875 L 61.90625 -18.96875 L 61.90625 -55.921875 C 61.90625 -60.347656 61.613281 -63.832031 61.03125 -66.375 C 60.457031 -68.925781 59.550781 -70.816406 58.3125 -72.046875 C 57.082031 -73.285156 55.519531 -74.195312 53.625 -74.78125 L 53.625 -76.296875 L 68.34375 -76.296875 L 68.34375 -74.78125 C 66.53125 -74.195312 65.347656 -72.976562 64.796875 -71.125 C 64.253906 -69.269531 63.984375 -66.378906 63.984375 -62.453125 L 63.984375 0.875 Z M 62.5625 0.875 "/></g></g><g style="fill:#150094;fill-opacity:1;"><g transform="translate(461.931602, 133.0717)"><path style="stroke:none" d="M -2.28125 0 L -2.28125 -1.53125 C -0.613281 -2.101562 0.960938 -3.222656 2.453125 -4.890625 C 3.941406 -6.566406 5.410156 -9.222656 6.859375 -12.859375 L 27.25 -63.4375 C 28.050781 -65.46875 27.976562 -67.429688 27.03125 -69.328125 L 25.609375 -72.375 L 36.296875 -77.171875 L 63.328125 -12.75 C 64.859375 -9.1875 66.332031 -6.566406 67.75 -4.890625 C 69.164062 -3.222656 70.488281 -2.101562 71.71875 -1.53125 L 71.71875 0 L 51.890625 0 L 51.890625 -1.53125 C 53.703125 -2.101562 54.367188 -3.222656 53.890625 -4.890625 C 53.421875 -6.566406 52.425781 -9.1875 50.90625 -12.75 L 44.359375 -28.453125 L 15.265625 -28.453125 L 8.9375 -12.859375 C 7.488281 -9.222656 6.90625 -6.535156 7.1875 -4.796875 C 7.476562 -3.054688 8.535156 -1.96875 10.359375 -1.53125 L 10.359375 0 Z M 15.90625 -30.1875 L 43.59375 -30.1875 L 29.53125 -63.875 Z M 15.90625 -30.1875 "/></g></g><g style="fill:#000000;fill-opacity:1;"><g transform="translate(24.004304, 178.994431)"><path style="stroke:none" d="M -0.609375 0 L -0.609375 -0.40625 C -0.160156 -0.5625 0.253906 -0.859375 0.640625 -1.296875 C 1.035156 -1.734375 1.425781 -2.429688 1.8125 -3.390625 L 7.203125 -16.765625 C 7.410156 -17.296875 7.390625 -17.8125 7.140625 -18.3125 L 6.765625 -19.125 L 9.59375 -20.390625 L 16.734375 -3.375 C 17.128906 -2.425781 17.515625 -1.734375 17.890625 -1.296875 C 18.265625 -0.859375 18.617188 -0.5625 18.953125 -0.40625 L 18.953125 0 L 13.703125 0 L 13.703125 -0.40625 C 14.179688 -0.5625 14.359375 -0.859375 14.234375 -1.296875 C 14.109375 -1.734375 13.847656 -2.425781 13.453125 -3.375 L 11.71875 -7.515625 L 4.03125 -7.515625 L 2.359375 -3.390625 C 1.972656 -2.429688 1.816406 -1.722656 1.890625 -1.265625 C 1.972656 -0.804688 2.253906 -0.519531 2.734375 -0.40625 L 2.734375 0 Z M 4.203125 -7.984375 L 11.515625 -7.984375 L 7.796875 -16.875 Z M 4.203125 -7.984375 "/></g></g><g style="fill:#000000;fill-opacity:1;"><g transform="translate(49.483257, 178.994431)"><path style="stroke:none" d="M 1.359375 0 L 1.359375 -0.40625 C 1.835938 -0.5625 2.144531 -0.882812 2.28125 -1.375 C 2.425781 -1.863281 2.5 -2.625 2.5 -3.65625 L 2.5 -16.5 C 2.5 -17.539062 2.425781 -18.304688 2.28125 -18.796875 C 2.144531 -19.285156 1.835938 -19.601562 1.359375 -19.75 L 1.359375 -20.15625 L 6.703125 -20.15625 L 6.703125 -19.75 C 6.222656 -19.601562 5.910156 -19.285156 5.765625 -18.796875 C 5.628906 -18.304688 5.5625 -17.539062 5.5625 -16.5 L 5.5625 -3.65625 C 5.5625 -2.625 5.628906 -1.863281 5.765625 -1.375 C 5.910156 -0.882812 6.222656 -0.5625 6.703125 -0.40625 L 6.703125 0 Z M 1.359375 0 "/></g></g><g style="fill:#000000;fill-opacity:1;"><g transform="translate(64.511986, 178.994431)"><path style="stroke:none" d="M 1.5 -6.9375 L 1.5 -7.40625 L 9.015625 -7.40625 L 9.015625 -6.9375 Z M 1.5 -6.9375 "/></g></g><g style="fill:#000000;fill-opacity:1;"><g transform="translate(81.987736, 178.994431)"><path style="stroke:none" d="M 1.359375 0 L 1.359375 -0.40625 C 1.835938 -0.5625 2.144531 -0.882812 2.28125 -1.375 C 2.425781 -1.863281 2.5 -2.625 2.5 -3.65625 L 2.5 -16.5 C 2.5 -17.539062 2.425781 -18.304688 2.28125 -18.796875 C 2.144531 -19.285156 1.835938 -19.601562 1.359375 -19.75 L 1.359375 -20.15625 L 7.40625 -20.15625 C 9.050781 -20.15625 10.394531 -19.976562 11.4375 -19.625 C 12.488281 -19.269531 13.304688 -18.804688 13.890625 -18.234375 C 14.472656 -17.671875 14.878906 -17.0625 15.109375 -16.40625 C 15.347656 -15.757812 15.46875 -15.148438 15.46875 -14.578125 C 15.46875 -13.378906 15.164062 -12.269531 14.5625 -11.25 C 13.96875 -10.238281 13.046875 -9.429688 11.796875 -8.828125 C 10.554688 -8.222656 8.945312 -7.921875 6.96875 -7.921875 L 5.5625 -7.921875 L 5.5625 -3.65625 C 5.5625 -2.625 5.628906 -1.863281 5.765625 -1.375 C 5.910156 -0.882812 6.222656 -0.5625 6.703125 -0.40625 L 6.703125 0 Z M 5.5625 -8.375 L 6.828125 -8.375 C 8.703125 -8.375 10.066406 -8.875 10.921875 -9.875 C 11.773438 -10.875 12.203125 -12.191406 12.203125 -13.828125 C 12.203125 -14.441406 12.113281 -15.085938 11.9375 -15.765625 C 11.769531 -16.441406 11.46875 -17.078125 11.03125 -17.671875 C 10.601562 -18.273438 10.015625 -18.765625 9.265625 -19.140625 C 8.523438 -19.515625 7.585938 -19.703125 6.453125 -19.703125 C 6.128906 -19.703125 5.832031 -19.679688 5.5625 -19.640625 Z M 5.5625 -8.375 "/></g></g><g style="fill:#000000;fill-opacity:1;"><g transform="translate(105.048455, 178.994431)"><path style="stroke:none" d="M 11.859375 0.28125 C 10.628906 0.28125 9.410156 0.078125 8.203125 -0.328125 C 6.992188 -0.742188 5.882812 -1.378906 4.875 -2.234375 C 3.875 -3.085938 3.070312 -4.171875 2.46875 -5.484375 C 1.863281 -6.796875 1.5625 -8.359375 1.5625 -10.171875 C 1.5625 -11.585938 1.804688 -12.914062 2.296875 -14.15625 C 2.796875 -15.394531 3.5 -16.476562 4.40625 -17.40625 C 5.320312 -18.332031 6.414062 -19.0625 7.6875 -19.59375 C 8.957031 -20.125 10.347656 -20.390625 11.859375 -20.390625 C 13.066406 -20.390625 14.28125 -20.175781 15.5 -19.75 C 16.71875 -19.332031 17.828125 -18.695312 18.828125 -17.84375 C 19.828125 -16.988281 20.628906 -15.90625 21.234375 -14.59375 C 21.835938 -13.289062 22.140625 -11.757812 22.140625 -10 C 22.140625 -8.25 21.835938 -6.722656 21.234375 -5.421875 C 20.628906 -4.128906 19.820312 -3.0625 18.8125 -2.21875 C 17.8125 -1.375 16.703125 -0.742188 15.484375 -0.328125 C 14.273438 0.078125 13.066406 0.28125 11.859375 0.28125 Z M 4.546875 -11.921875 C 4.640625 -10.484375 4.929688 -9.085938 5.421875 -7.734375 C 5.910156 -6.378906 6.550781 -5.164062 7.34375 -4.09375 C 8.132812 -3.03125 9.050781 -2.179688 10.09375 -1.546875 C 11.132812 -0.921875 12.269531 -0.609375 13.5 -0.609375 C 14.976562 -0.609375 16.148438 -0.9375 17.015625 -1.59375 C 17.878906 -2.257812 18.488281 -3.128906 18.84375 -4.203125 C 19.195312 -5.273438 19.328125 -6.445312 19.234375 -7.71875 C 19.117188 -9.25 18.832031 -10.722656 18.375 -12.140625 C 17.914062 -13.566406 17.296875 -14.847656 16.515625 -15.984375 C 15.734375 -17.117188 14.820312 -18.007812 13.78125 -18.65625 C 12.75 -19.3125 11.609375 -19.640625 10.359375 -19.640625 C 9.054688 -19.640625 7.953125 -19.320312 7.046875 -18.6875 C 6.148438 -18.050781 5.484375 -17.148438 5.046875 -15.984375 C 4.617188 -14.828125 4.453125 -13.472656 4.546875 -11.921875 Z M 4.546875 -11.921875 "/></g></g><g style="fill:#000000;fill-opacity:1;"><g transform="translate(135.622979, 178.994431)"><path style="stroke:none" d="M 10.515625 -16.765625 C 10.128906 -17.722656 9.75 -18.421875 9.375 -18.859375 C 9 -19.304688 8.648438 -19.601562 8.328125 -19.75 L 8.328125 -20.15625 L 13.53125 -20.15625 L 13.53125 -19.75 C 13.050781 -19.601562 12.875 -19.304688 13 -18.859375 C 13.125 -18.421875 13.378906 -17.722656 13.765625 -16.765625 L 15.171875 -13.328125 L 16.4375 -16.734375 C 16.800781 -17.691406 16.9375 -18.40625 16.84375 -18.875 C 16.75 -19.34375 16.453125 -19.632812 15.953125 -19.75 L 15.953125 -20.15625 L 19.296875 -20.15625 L 19.296875 -19.75 C 18.867188 -19.601562 18.46875 -19.300781 18.09375 -18.84375 C 17.71875 -18.394531 17.34375 -17.691406 16.96875 -16.734375 L 15.4375 -12.640625 L 19.125 -3.6875 L 23.875 -16.734375 C 24.238281 -17.691406 24.367188 -18.40625 24.265625 -18.875 C 24.171875 -19.34375 23.878906 -19.632812 23.390625 -19.75 L 23.390625 -20.15625 L 26.71875 -20.15625 L 26.71875 -19.75 C 26.300781 -19.601562 25.90625 -19.300781 25.53125 -18.84375 C 25.15625 -18.394531 24.796875 -17.691406 24.453125 -16.734375 L 18.375 0 L 17.328125 0 L 13.53125 -9.296875 L 9.765625 0 L 8.671875 0 L 2.28125 -16.734375 C 1.914062 -17.710938 1.550781 -18.421875 1.1875 -18.859375 C 0.832031 -19.304688 0.492188 -19.601562 0.171875 -19.75 L 0.171875 -20.15625 L 5.390625 -20.15625 L 5.390625 -19.75 C 4.910156 -19.601562 4.726562 -19.304688 4.84375 -18.859375 C 4.957031 -18.421875 5.195312 -17.710938 5.5625 -16.734375 L 10.59375 -3.625 L 13.25 -10.046875 Z M 10.515625 -16.765625 "/></g></g><g style="fill:#000000;fill-opacity:1;"><g transform="translate(169.450611, 178.994431)"><path style="stroke:none" d="M 1.359375 0 L 1.359375 -0.40625 C 1.835938 -0.5625 2.144531 -0.882812 2.28125 -1.375 C 2.425781 -1.863281 2.5 -2.625 2.5 -3.65625 L 2.5 -16.5 C 2.5 -17.539062 2.425781 -18.304688 2.28125 -18.796875 C 2.144531 -19.285156 1.835938 -19.601562 1.359375 -19.75 L 1.359375 -20.15625 L 15.171875 -20.15625 L 15.5 -16.09375 L 15.125 -16.015625 C 14.539062 -17.429688 13.765625 -18.398438 12.796875 -18.921875 C 11.828125 -19.441406 10.535156 -19.703125 8.921875 -19.703125 L 5.5625 -19.703125 L 5.5625 -11.0625 L 8.328125 -11.0625 C 9.492188 -11.0625 10.410156 -11.132812 11.078125 -11.28125 C 11.753906 -11.4375 12.253906 -11.675781 12.578125 -12 C 12.910156 -12.332031 13.148438 -12.75 13.296875 -13.25 L 13.703125 -13.25 L 13.703125 -8.40625 L 13.296875 -8.40625 C 13.148438 -8.90625 12.910156 -9.316406 12.578125 -9.640625 C 12.253906 -9.972656 11.753906 -10.210938 11.078125 -10.359375 C 10.410156 -10.515625 9.492188 -10.59375 8.328125 -10.59375 L 5.5625 -10.59375 L 5.5625 -1.90625 C 5.5625 -0.9375 6.039062 -0.453125 7 -0.453125 L 9.765625 -0.453125 C 11.222656 -0.453125 12.453125 -0.722656 13.453125 -1.265625 C 14.453125 -1.804688 15.21875 -2.804688 15.75 -4.265625 L 16.125 -4.203125 L 15.921875 0 Z M 1.359375 0 "/></g></g><g style="fill:#000000;fill-opacity:1;"><g transform="translate(193.547721, 178.994431)"><path style="stroke:none" d="M 16.015625 0.203125 C 15.222656 0.203125 14.59375 0.0234375 14.125 -0.328125 C 13.65625 -0.679688 13.242188 -1.222656 12.890625 -1.953125 C 12.535156 -2.679688 12.125 -3.601562 11.65625 -4.71875 C 11.238281 -5.78125 10.882812 -6.671875 10.59375 -7.390625 C 10.3125 -8.109375 10.035156 -8.679688 9.765625 -9.109375 C 9.492188 -9.546875 9.164062 -9.859375 8.78125 -10.046875 C 8.394531 -10.242188 7.882812 -10.34375 7.25 -10.34375 L 5.5625 -10.34375 L 5.5625 -3.65625 C 5.5625 -2.625 5.628906 -1.863281 5.765625 -1.375 C 5.910156 -0.882812 6.222656 -0.5625 6.703125 -0.40625 L 6.703125 0 L 1.359375 0 L 1.359375 -0.40625 C 1.835938 -0.5625 2.144531 -0.882812 2.28125 -1.375 C 2.425781 -1.863281 2.5 -2.625 2.5 -3.65625 L 2.5 -16.5 C 2.5 -17.539062 2.425781 -18.304688 2.28125 -18.796875 C 2.144531 -19.285156 1.835938 -19.601562 1.359375 -19.75 L 1.359375 -20.15625 L 7.40625 -20.15625 C 8.976562 -20.15625 10.257812 -20.023438 11.25 -19.765625 C 12.238281 -19.503906 13 -19.15625 13.53125 -18.71875 C 14.070312 -18.289062 14.445312 -17.800781 14.65625 -17.25 C 14.863281 -16.695312 14.96875 -16.128906 14.96875 -15.546875 C 14.96875 -14.222656 14.503906 -13.097656 13.578125 -12.171875 C 12.660156 -11.253906 11.242188 -10.679688 9.328125 -10.453125 C 10.140625 -10.359375 10.804688 -10.195312 11.328125 -9.96875 C 11.859375 -9.738281 12.3125 -9.40625 12.6875 -8.96875 C 13.0625 -8.539062 13.398438 -7.992188 13.703125 -7.328125 C 14.015625 -6.660156 14.363281 -5.847656 14.75 -4.890625 C 15.257812 -3.628906 15.660156 -2.671875 15.953125 -2.015625 C 16.242188 -1.359375 16.515625 -0.921875 16.765625 -0.703125 C 17.015625 -0.484375 17.3125 -0.375 17.65625 -0.375 C 17.726562 -0.375 17.796875 -0.375 17.859375 -0.375 C 17.929688 -0.375 18.003906 -0.382812 18.078125 -0.40625 L 18.078125 0 C 17.753906 0.0703125 17.390625 0.125 16.984375 0.15625 C 16.585938 0.1875 16.265625 0.203125 16.015625 0.203125 Z M 5.5625 -10.796875 L 7.40625 -10.796875 C 8.5 -10.796875 9.375 -10.976562 10.03125 -11.34375 C 10.695312 -11.707031 11.175781 -12.203125 11.46875 -12.828125 C 11.769531 -13.453125 11.921875 -14.128906 11.921875 -14.859375 C 11.921875 -15.648438 11.75 -16.410156 11.40625 -17.140625 C 11.0625 -17.878906 10.515625 -18.488281 9.765625 -18.96875 C 9.015625 -19.457031 8.035156 -19.703125 6.828125 -19.703125 C 6.421875 -19.703125 6 -19.671875 5.5625 -19.609375 Z M 5.5625 -10.796875 "/></g></g><g style="fill:#000000;fill-opacity:1;"><g transform="translate(218.306971, 178.994431)"><path style="stroke:none" d="M 1.359375 0 L 1.359375 -0.40625 C 1.835938 -0.5625 2.144531 -0.882812 2.28125 -1.375 C 2.425781 -1.863281 2.5 -2.625 2.5 -3.65625 L 2.5 -16.5 C 2.5 -17.539062 2.425781 -18.304688 2.28125 -18.796875 C 2.144531 -19.285156 1.835938 -19.601562 1.359375 -19.75 L 1.359375 -20.15625 L 15.171875 -20.15625 L 15.5 -16.09375 L 15.125 -16.015625 C 14.539062 -17.429688 13.765625 -18.398438 12.796875 -18.921875 C 11.828125 -19.441406 10.535156 -19.703125 8.921875 -19.703125 L 5.5625 -19.703125 L 5.5625 -11.0625 L 8.328125 -11.0625 C 9.492188 -11.0625 10.410156 -11.132812 11.078125 -11.28125 C 11.753906 -11.4375 12.253906 -11.675781 12.578125 -12 C 12.910156 -12.332031 13.148438 -12.75 13.296875 -13.25 L 13.703125 -13.25 L 13.703125 -8.40625 L 13.296875 -8.40625 C 13.148438 -8.90625 12.910156 -9.316406 12.578125 -9.640625 C 12.253906 -9.972656 11.753906 -10.210938 11.078125 -10.359375 C 10.410156 -10.515625 9.492188 -10.59375 8.328125 -10.59375 L 5.5625 -10.59375 L 5.5625 -1.90625 C 5.5625 -0.9375 6.039062 -0.453125 7 -0.453125 L 9.765625 -0.453125 C 11.222656 -0.453125 12.453125 -0.722656 13.453125 -1.265625 C 14.453125 -1.804688 15.21875 -2.804688 15.75 -4.265625 L 16.125 -4.203125 L 15.921875 0 Z M 1.359375 0 "/></g></g><g style="fill:#000000;fill-opacity:1;"><g transform="translate(242.40407, 178.994431)"><path style="stroke:none" d="M 1.359375 0 L 1.359375 -0.40625 C 1.835938 -0.5625 2.144531 -0.882812 2.28125 -1.375 C 2.425781 -1.863281 2.5 -2.625 2.5 -3.65625 L 2.5 -16.5 C 2.5 -17.539062 2.425781 -18.304688 2.28125 -18.796875 C 2.144531 -19.285156 1.835938 -19.601562 1.359375 -19.75 L 1.359375 -20.15625 L 8.546875 -20.15625 C 10.617188 -20.15625 12.359375 -19.859375 13.765625 -19.265625 C 15.179688 -18.671875 16.3125 -17.890625 17.15625 -16.921875 C 18.007812 -15.953125 18.625 -14.898438 19 -13.765625 C 19.382812 -12.628906 19.578125 -11.535156 19.578125 -10.484375 C 19.597656 -8.410156 19.179688 -6.585938 18.328125 -5.015625 C 17.472656 -3.441406 16.265625 -2.210938 14.703125 -1.328125 C 13.140625 -0.441406 11.300781 0 9.1875 0 Z M 5.5625 -2.5625 C 5.5625 -1.894531 5.675781 -1.375 5.90625 -1 C 6.132812 -0.632812 6.640625 -0.453125 7.421875 -0.453125 L 8.984375 -0.453125 C 11.304688 -0.453125 13.085938 -1.117188 14.328125 -2.453125 C 15.566406 -3.796875 16.1875 -6.003906 16.1875 -9.078125 C 16.1875 -11.046875 15.835938 -12.832031 15.140625 -14.4375 C 14.453125 -16.039062 13.410156 -17.316406 12.015625 -18.265625 C 10.628906 -19.222656 8.859375 -19.703125 6.703125 -19.703125 L 5.5625 -19.703125 Z M 5.5625 -2.5625 "/></g></g><g style="fill:#000000;fill-opacity:1;"><g transform="translate(270.416438, 178.994431)"><path style="stroke:none" d=""/></g></g><g style="fill:#000000;fill-opacity:1;"><g transform="translate(283.142069, 178.994431)"><path style="stroke:none" d="M 1.359375 0 L 1.359375 -0.40625 C 1.835938 -0.5625 2.144531 -0.882812 2.28125 -1.375 C 2.425781 -1.863281 2.5 -2.625 2.5 -3.65625 L 2.5 -16.5 C 2.5 -17.539062 2.425781 -18.304688 2.28125 -18.796875 C 2.144531 -19.285156 1.835938 -19.601562 1.359375 -19.75 L 1.359375 -20.15625 L 6.703125 -20.15625 L 6.703125 -19.75 C 6.222656 -19.601562 5.910156 -19.285156 5.765625 -18.796875 C 5.628906 -18.304688 5.5625 -17.539062 5.5625 -16.5 L 5.5625 -1.953125 C 5.5625 -0.992188 6.039062 -0.515625 7 -0.515625 L 9.359375 -0.515625 C 10.816406 -0.515625 11.960938 -0.734375 12.796875 -1.171875 C 13.628906 -1.617188 14.335938 -2.457031 14.921875 -3.6875 L 15.296875 -3.625 L 15.0625 0 Z M 1.359375 0 "/></g></g><g style="fill:#000000;fill-opacity:1;"><g transform="translate(305.914909, 178.994431)"><path style="stroke:none" d="M 1.359375 0 L 1.359375 -0.40625 C 1.835938 -0.5625 2.144531 -0.882812 2.28125 -1.375 C 2.425781 -1.863281 2.5 -2.625 2.5 -3.65625 L 2.5 -16.5 C 2.5 -17.539062 2.425781 -18.304688 2.28125 -18.796875 C 2.144531 -19.285156 1.835938 -19.601562 1.359375 -19.75 L 1.359375 -20.15625 L 15.171875 -20.15625 L 15.5 -16.09375 L 15.125 -16.015625 C 14.539062 -17.429688 13.765625 -18.398438 12.796875 -18.921875 C 11.828125 -19.441406 10.535156 -19.703125 8.921875 -19.703125 L 5.5625 -19.703125 L 5.5625 -11.0625 L 8.328125 -11.0625 C 9.492188 -11.0625 10.410156 -11.132812 11.078125 -11.28125 C 11.753906 -11.4375 12.253906 -11.675781 12.578125 -12 C 12.910156 -12.332031 13.148438 -12.75 13.296875 -13.25 L 13.703125 -13.25 L 13.703125 -8.40625 L 13.296875 -8.40625 C 13.148438 -8.90625 12.910156 -9.316406 12.578125 -9.640625 C 12.253906 -9.972656 11.753906 -10.210938 11.078125 -10.359375 C 10.410156 -10.515625 9.492188 -10.59375 8.328125 -10.59375 L 5.5625 -10.59375 L 5.5625 -1.90625 C 5.5625 -0.9375 6.039062 -0.453125 7 -0.453125 L 9.765625 -0.453125 C 11.222656 -0.453125 12.453125 -0.722656 13.453125 -1.265625 C 14.453125 -1.804688 15.21875 -2.804688 15.75 -4.265625 L 16.125 -4.203125 L 15.921875 0 Z M 1.359375 0 "/></g></g><g style="fill:#000000;fill-opacity:1;"><g transform="translate(330.012008, 178.994431)"><path style="stroke:none" d="M -0.609375 0 L -0.609375 -0.40625 C -0.160156 -0.5625 0.253906 -0.859375 0.640625 -1.296875 C 1.035156 -1.734375 1.425781 -2.429688 1.8125 -3.390625 L 7.203125 -16.765625 C 7.410156 -17.296875 7.390625 -17.8125 7.140625 -18.3125 L 6.765625 -19.125 L 9.59375 -20.390625 L 16.734375 -3.375 C 17.128906 -2.425781 17.515625 -1.734375 17.890625 -1.296875 C 18.265625 -0.859375 18.617188 -0.5625 18.953125 -0.40625 L 18.953125 0 L 13.703125 0 L 13.703125 -0.40625 C 14.179688 -0.5625 14.359375 -0.859375 14.234375 -1.296875 C 14.109375 -1.734375 13.847656 -2.425781 13.453125 -3.375 L 11.71875 -7.515625 L 4.03125 -7.515625 L 2.359375 -3.390625 C 1.972656 -2.429688 1.816406 -1.722656 1.890625 -1.265625 C 1.972656 -0.804688 2.253906 -0.519531 2.734375 -0.40625 L 2.734375 0 Z M 4.203125 -7.984375 L 11.515625 -7.984375 L 7.796875 -16.875 Z M 4.203125 -7.984375 "/></g></g><g style="fill:#000000;fill-opacity:1;"><g transform="translate(355.490961, 178.994431)"><path style="stroke:none" d="M 16.015625 0.203125 C 15.222656 0.203125 14.59375 0.0234375 14.125 -0.328125 C 13.65625 -0.679688 13.242188 -1.222656 12.890625 -1.953125 C 12.535156 -2.679688 12.125 -3.601562 11.65625 -4.71875 C 11.238281 -5.78125 10.882812 -6.671875 10.59375 -7.390625 C 10.3125 -8.109375 10.035156 -8.679688 9.765625 -9.109375 C 9.492188 -9.546875 9.164062 -9.859375 8.78125 -10.046875 C 8.394531 -10.242188 7.882812 -10.34375 7.25 -10.34375 L 5.5625 -10.34375 L 5.5625 -3.65625 C 5.5625 -2.625 5.628906 -1.863281 5.765625 -1.375 C 5.910156 -0.882812 6.222656 -0.5625 6.703125 -0.40625 L 6.703125 0 L 1.359375 0 L 1.359375 -0.40625 C 1.835938 -0.5625 2.144531 -0.882812 2.28125 -1.375 C 2.425781 -1.863281 2.5 -2.625 2.5 -3.65625 L 2.5 -16.5 C 2.5 -17.539062 2.425781 -18.304688 2.28125 -18.796875 C 2.144531 -19.285156 1.835938 -19.601562 1.359375 -19.75 L 1.359375 -20.15625 L 7.40625 -20.15625 C 8.976562 -20.15625 10.257812 -20.023438 11.25 -19.765625 C 12.238281 -19.503906 13 -19.15625 13.53125 -18.71875 C 14.070312 -18.289062 14.445312 -17.800781 14.65625 -17.25 C 14.863281 -16.695312 14.96875 -16.128906 14.96875 -15.546875 C 14.96875 -14.222656 14.503906 -13.097656 13.578125 -12.171875 C 12.660156 -11.253906 11.242188 -10.679688 9.328125 -10.453125 C 10.140625 -10.359375 10.804688 -10.195312 11.328125 -9.96875 C 11.859375 -9.738281 12.3125 -9.40625 12.6875 -8.96875 C 13.0625 -8.539062 13.398438 -7.992188 13.703125 -7.328125 C 14.015625 -6.660156 14.363281 -5.847656 14.75 -4.890625 C 15.257812 -3.628906 15.660156 -2.671875 15.953125 -2.015625 C 16.242188 -1.359375 16.515625 -0.921875 16.765625 -0.703125 C 17.015625 -0.484375 17.3125 -0.375 17.65625 -0.375 C 17.726562 -0.375 17.796875 -0.375 17.859375 -0.375 C 17.929688 -0.375 18.003906 -0.382812 18.078125 -0.40625 L 18.078125 0 C 17.753906 0.0703125 17.390625 0.125 16.984375 0.15625 C 16.585938 0.1875 16.265625 0.203125 16.015625 0.203125 Z M 5.5625 -10.796875 L 7.40625 -10.796875 C 8.5 -10.796875 9.375 -10.976562 10.03125 -11.34375 C 10.695312 -11.707031 11.175781 -12.203125 11.46875 -12.828125 C 11.769531 -13.453125 11.921875 -14.128906 11.921875 -14.859375 C 11.921875 -15.648438 11.75 -16.410156 11.40625 -17.140625 C 11.0625 -17.878906 10.515625 -18.488281 9.765625 -18.96875 C 9.015625 -19.457031 8.035156 -19.703125 6.828125 -19.703125 C 6.421875 -19.703125 6 -19.671875 5.5625 -19.609375 Z M 5.5625 -10.796875 "/></g></g><g style="fill:#000000;fill-opacity:1;"><g transform="translate(380.250223, 178.994431)"><path style="stroke:none" d="M 16.53125 0.234375 L 3.03125 -16.8125 L 3.03125 -5.390625 C 3.03125 -4.210938 3.101562 -3.285156 3.25 -2.609375 C 3.40625 -1.941406 3.644531 -1.445312 3.96875 -1.125 C 4.300781 -0.800781 4.71875 -0.5625 5.21875 -0.40625 L 5.21875 0 L 1.359375 0 L 1.359375 -0.40625 C 1.835938 -0.5625 2.144531 -0.882812 2.28125 -1.375 C 2.425781 -1.863281 2.5 -2.625 2.5 -3.65625 L 2.5 -16.5 C 2.5 -17.539062 2.398438 -18.304688 2.203125 -18.796875 C 2.015625 -19.285156 1.617188 -19.601562 1.015625 -19.75 L 1.015625 -20.15625 L 4.265625 -20.15625 L 16.359375 -5.015625 L 16.359375 -14.765625 C 16.359375 -15.941406 16.28125 -16.863281 16.125 -17.53125 C 15.96875 -18.207031 15.726562 -18.707031 15.40625 -19.03125 C 15.082031 -19.363281 14.671875 -19.601562 14.171875 -19.75 L 14.171875 -20.15625 L 18.0625 -20.15625 L 18.0625 -19.75 C 17.570312 -19.601562 17.253906 -19.285156 17.109375 -18.796875 C 16.972656 -18.304688 16.90625 -17.539062 16.90625 -16.5 L 16.90625 0.234375 Z M 16.53125 0.234375 "/></g></g><g style="fill:#000000;fill-opacity:1;"><g transform="translate(406.276147, 178.994431)"><path style="stroke:none" d="M 1.359375 0 L 1.359375 -0.40625 C 1.835938 -0.5625 2.144531 -0.882812 2.28125 -1.375 C 2.425781 -1.863281 2.5 -2.625 2.5 -3.65625 L 2.5 -16.5 C 2.5 -17.539062 2.425781 -18.304688 2.28125 -18.796875 C 2.144531 -19.285156 1.835938 -19.601562 1.359375 -19.75 L 1.359375 -20.15625 L 6.703125 -20.15625 L 6.703125 -19.75 C 6.222656 -19.601562 5.910156 -19.285156 5.765625 -18.796875 C 5.628906 -18.304688 5.5625 -17.539062 5.5625 -16.5 L 5.5625 -3.65625 C 5.5625 -2.625 5.628906 -1.863281 5.765625 -1.375 C 5.910156 -0.882812 6.222656 -0.5625 6.703125 -0.40625 L 6.703125 0 Z M 1.359375 0 "/></g></g><g style="fill:#000000;fill-opacity:1;"><g transform="translate(421.304876, 178.994431)"><path style="stroke:none" d="M 16.53125 0.234375 L 3.03125 -16.8125 L 3.03125 -5.390625 C 3.03125 -4.210938 3.101562 -3.285156 3.25 -2.609375 C 3.40625 -1.941406 3.644531 -1.445312 3.96875 -1.125 C 4.300781 -0.800781 4.71875 -0.5625 5.21875 -0.40625 L 5.21875 0 L 1.359375 0 L 1.359375 -0.40625 C 1.835938 -0.5625 2.144531 -0.882812 2.28125 -1.375 C 2.425781 -1.863281 2.5 -2.625 2.5 -3.65625 L 2.5 -16.5 C 2.5 -17.539062 2.398438 -18.304688 2.203125 -18.796875 C 2.015625 -19.285156 1.617188 -19.601562 1.015625 -19.75 L 1.015625 -20.15625 L 4.265625 -20.15625 L 16.359375 -5.015625 L 16.359375 -14.765625 C 16.359375 -15.941406 16.28125 -16.863281 16.125 -17.53125 C 15.96875 -18.207031 15.726562 -18.707031 15.40625 -19.03125 C 15.082031 -19.363281 14.671875 -19.601562 14.171875 -19.75 L 14.171875 -20.15625 L 18.0625 -20.15625 L 18.0625 -19.75 C 17.570312 -19.601562 17.253906 -19.285156 17.109375 -18.796875 C 16.972656 -18.304688 16.90625 -17.539062 16.90625 -16.5 L 16.90625 0.234375 Z M 16.53125 0.234375 "/></g></g><g style="fill:#000000;fill-opacity:1;"><g transform="translate(447.330822, 178.994431)"><path style="stroke:none" d="M 12.40625 0.28125 C 10.195312 0.28125 8.28125 -0.144531 6.65625 -1 C 5.039062 -1.863281 3.785156 -3.082031 2.890625 -4.65625 C 2.003906 -6.238281 1.5625 -8.078125 1.5625 -10.171875 C 1.5625 -11.546875 1.816406 -12.847656 2.328125 -14.078125 C 2.847656 -15.304688 3.582031 -16.390625 4.53125 -17.328125 C 5.488281 -18.273438 6.632812 -19.015625 7.96875 -19.546875 C 9.300781 -20.085938 10.769531 -20.359375 12.375 -20.359375 C 12.976562 -20.359375 13.671875 -20.3125 14.453125 -20.21875 C 15.242188 -20.125 16.015625 -19.972656 16.765625 -19.765625 C 17.515625 -19.566406 18.132812 -19.296875 18.625 -18.953125 L 18.75 -15.140625 L 18.40625 -15.0625 C 18.019531 -16.0625 17.453125 -16.910156 16.703125 -17.609375 C 15.953125 -18.304688 15.101562 -18.847656 14.15625 -19.234375 C 13.21875 -19.617188 12.269531 -19.8125 11.3125 -19.8125 C 10.070312 -19.8125 8.941406 -19.523438 7.921875 -18.953125 C 6.898438 -18.390625 6.09375 -17.535156 5.5 -16.390625 C 4.90625 -15.253906 4.597656 -13.8125 4.578125 -12.0625 C 4.554688 -10.695312 4.742188 -9.328125 5.140625 -7.953125 C 5.535156 -6.585938 6.109375 -5.332031 6.859375 -4.1875 C 7.617188 -3.039062 8.546875 -2.125 9.640625 -1.4375 C 10.734375 -0.75 11.972656 -0.40625 13.359375 -0.40625 C 14.265625 -0.40625 15.09375 -0.59375 15.84375 -0.96875 C 16.601562 -1.34375 17.164062 -1.882812 17.53125 -2.59375 L 17.53125 -5.21875 C 17.53125 -6.34375 17.4375 -7.144531 17.25 -7.625 C 17.0625 -8.101562 16.660156 -8.429688 16.046875 -8.609375 L 16.046875 -9.015625 L 20.5 -9.015625 L 20.5 -3.71875 C 19.789062 -2.769531 18.957031 -2.003906 18 -1.421875 C 17.039062 -0.835938 16.070312 -0.40625 15.09375 -0.125 C 14.113281 0.144531 13.21875 0.28125 12.40625 0.28125 Z M 12.40625 0.28125 "/></g></g><g style="fill:#000000;fill-opacity:1;"><g transform="translate(476.005331, 178.994431)"><path style="stroke:none" d=""/></g></g><g style="fill:#000000;fill-opacity:1;"><g transform="translate(488.730939, 178.994431)"><path style="stroke:none" d="M -0.609375 0 L -0.609375 -0.40625 C -0.160156 -0.5625 0.253906 -0.859375 0.640625 -1.296875 C 1.035156 -1.734375 1.425781 -2.429688 1.8125 -3.390625 L 7.203125 -16.765625 C 7.410156 -17.296875 7.390625 -17.8125 7.140625 -18.3125 L 6.765625 -19.125 L 9.59375 -20.390625 L 16.734375 -3.375 C 17.128906 -2.425781 17.515625 -1.734375 17.890625 -1.296875 C 18.265625 -0.859375 18.617188 -0.5625 18.953125 -0.40625 L 18.953125 0 L 13.703125 0 L 13.703125 -0.40625 C 14.179688 -0.5625 14.359375 -0.859375 14.234375 -1.296875 C 14.109375 -1.734375 13.847656 -2.425781 13.453125 -3.375 L 11.71875 -7.515625 L 4.03125 -7.515625 L 2.359375 -3.390625 C 1.972656 -2.429688 1.816406 -1.722656 1.890625 -1.265625 C 1.972656 -0.804688 2.253906 -0.519531 2.734375 -0.40625 L 2.734375 0 Z M 4.203125 -7.984375 L 11.515625 -7.984375 L 7.796875 -16.875 Z M 4.203125 -7.984375 "/></g></g><g style="fill:#000000;fill-opacity:1;"><g transform="translate(514.209892, 178.994431)"><path style="stroke:none" d="M 8.234375 0.28125 C 6.753906 0.28125 5.378906 0.078125 4.109375 -0.328125 C 2.847656 -0.742188 1.851562 -1.21875 1.125 -1.75 L 1.015625 -6.078125 L 1.375 -6.140625 C 1.78125 -5.046875 2.332031 -4.0625 3.03125 -3.1875 C 3.738281 -2.3125 4.585938 -1.613281 5.578125 -1.09375 C 6.578125 -0.570312 7.710938 -0.3125 8.984375 -0.3125 C 9.660156 -0.3125 10.285156 -0.453125 10.859375 -0.734375 C 11.429688 -1.015625 11.898438 -1.421875 12.265625 -1.953125 C 12.628906 -2.492188 12.8125 -3.15625 12.8125 -3.9375 C 12.8125 -4.65625 12.609375 -5.273438 12.203125 -5.796875 C 11.804688 -6.328125 11.296875 -6.789062 10.671875 -7.1875 C 10.046875 -7.582031 9.382812 -7.925781 8.6875 -8.21875 C 8 -8.519531 7.367188 -8.785156 6.796875 -9.015625 C 5.816406 -9.429688 4.910156 -9.847656 4.078125 -10.265625 C 3.253906 -10.691406 2.59375 -11.238281 2.09375 -11.90625 C 1.601562 -12.570312 1.359375 -13.460938 1.359375 -14.578125 C 1.359375 -16.359375 2.023438 -17.765625 3.359375 -18.796875 C 4.691406 -19.835938 6.488281 -20.359375 8.75 -20.359375 C 9.820312 -20.359375 10.820312 -20.25 11.75 -20.03125 C 12.6875 -19.820312 13.53125 -19.53125 14.28125 -19.15625 L 14.40625 -15.40625 L 14.078125 -15.296875 C 13.484375 -16.773438 12.613281 -17.90625 11.46875 -18.6875 C 10.332031 -19.476562 9.0625 -19.875 7.65625 -19.875 C 6.507812 -19.875 5.535156 -19.550781 4.734375 -18.90625 C 3.941406 -18.257812 3.546875 -17.367188 3.546875 -16.234375 C 3.546875 -15.609375 3.703125 -15.054688 4.015625 -14.578125 C 4.335938 -14.109375 4.757812 -13.703125 5.28125 -13.359375 C 5.8125 -13.015625 6.378906 -12.710938 6.984375 -12.453125 C 7.585938 -12.191406 8.175781 -11.945312 8.75 -11.71875 C 9.476562 -11.425781 10.222656 -11.117188 10.984375 -10.796875 C 11.742188 -10.472656 12.441406 -10.085938 13.078125 -9.640625 C 13.710938 -9.203125 14.21875 -8.675781 14.59375 -8.0625 C 14.976562 -7.445312 15.171875 -6.707031 15.171875 -5.84375 C 15.171875 -4.863281 14.96875 -3.988281 14.5625 -3.21875 C 14.164062 -2.457031 13.628906 -1.816406 12.953125 -1.296875 C 12.285156 -0.773438 11.535156 -0.378906 10.703125 -0.109375 C 9.878906 0.148438 9.054688 0.28125 8.234375 0.28125 Z M 8.234375 0.28125 "/></g></g><g style="fill:#000000;fill-opacity:1;"><g transform="translate(537.097902, 178.994431)"><path style="stroke:none" d="M 8.234375 0.28125 C 6.753906 0.28125 5.378906 0.078125 4.109375 -0.328125 C 2.847656 -0.742188 1.851562 -1.21875 1.125 -1.75 L 1.015625 -6.078125 L 1.375 -6.140625 C 1.78125 -5.046875 2.332031 -4.0625 3.03125 -3.1875 C 3.738281 -2.3125 4.585938 -1.613281 5.578125 -1.09375 C 6.578125 -0.570312 7.710938 -0.3125 8.984375 -0.3125 C 9.660156 -0.3125 10.285156 -0.453125 10.859375 -0.734375 C 11.429688 -1.015625 11.898438 -1.421875 12.265625 -1.953125 C 12.628906 -2.492188 12.8125 -3.15625 12.8125 -3.9375 C 12.8125 -4.65625 12.609375 -5.273438 12.203125 -5.796875 C 11.804688 -6.328125 11.296875 -6.789062 10.671875 -7.1875 C 10.046875 -7.582031 9.382812 -7.925781 8.6875 -8.21875 C 8 -8.519531 7.367188 -8.785156 6.796875 -9.015625 C 5.816406 -9.429688 4.910156 -9.847656 4.078125 -10.265625 C 3.253906 -10.691406 2.59375 -11.238281 2.09375 -11.90625 C 1.601562 -12.570312 1.359375 -13.460938 1.359375 -14.578125 C 1.359375 -16.359375 2.023438 -17.765625 3.359375 -18.796875 C 4.691406 -19.835938 6.488281 -20.359375 8.75 -20.359375 C 9.820312 -20.359375 10.820312 -20.25 11.75 -20.03125 C 12.6875 -19.820312 13.53125 -19.53125 14.28125 -19.15625 L 14.40625 -15.40625 L 14.078125 -15.296875 C 13.484375 -16.773438 12.613281 -17.90625 11.46875 -18.6875 C 10.332031 -19.476562 9.0625 -19.875 7.65625 -19.875 C 6.507812 -19.875 5.535156 -19.550781 4.734375 -18.90625 C 3.941406 -18.257812 3.546875 -17.367188 3.546875 -16.234375 C 3.546875 -15.609375 3.703125 -15.054688 4.015625 -14.578125 C 4.335938 -14.109375 4.757812 -13.703125 5.28125 -13.359375 C 5.8125 -13.015625 6.378906 -12.710938 6.984375 -12.453125 C 7.585938 -12.191406 8.175781 -11.945312 8.75 -11.71875 C 9.476562 -11.425781 10.222656 -11.117188 10.984375 -10.796875 C 11.742188 -10.472656 12.441406 -10.085938 13.078125 -9.640625 C 13.710938 -9.203125 14.21875 -8.675781 14.59375 -8.0625 C 14.976562 -7.445312 15.171875 -6.707031 15.171875 -5.84375 C 15.171875 -4.863281 14.96875 -3.988281 14.5625 -3.21875 C 14.164062 -2.457031 13.628906 -1.816406 12.953125 -1.296875 C 12.285156 -0.773438 11.535156 -0.378906 10.703125 -0.109375 C 9.878906 0.148438 9.054688 0.28125 8.234375 0.28125 Z M 8.234375 0.28125 "/></g></g><g style="fill:#000000;fill-opacity:1;"><g transform="translate(559.985867, 178.994431)"><path style="stroke:none" d="M 1.359375 0 L 1.359375 -0.40625 C 1.835938 -0.5625 2.144531 -0.882812 2.28125 -1.375 C 2.425781 -1.863281 2.5 -2.625 2.5 -3.65625 L 2.5 -16.5 C 2.5 -17.539062 2.425781 -18.304688 2.28125 -18.796875 C 2.144531 -19.285156 1.835938 -19.601562 1.359375 -19.75 L 1.359375 -20.15625 L 6.703125 -20.15625 L 6.703125 -19.75 C 6.222656 -19.601562 5.910156 -19.285156 5.765625 -18.796875 C 5.628906 -18.304688 5.5625 -17.539062 5.5625 -16.5 L 5.5625 -3.65625 C 5.5625 -2.625 5.628906 -1.863281 5.765625 -1.375 C 5.910156 -0.882812 6.222656 -0.5625 6.703125 -0.40625 L 6.703125 0 Z M 1.359375 0 "/></g></g><g style="fill:#000000;fill-opacity:1;"><g transform="translate(575.014596, 178.994431)"><path style="stroke:none" d="M 8.234375 0.28125 C 6.753906 0.28125 5.378906 0.078125 4.109375 -0.328125 C 2.847656 -0.742188 1.851562 -1.21875 1.125 -1.75 L 1.015625 -6.078125 L 1.375 -6.140625 C 1.78125 -5.046875 2.332031 -4.0625 3.03125 -3.1875 C 3.738281 -2.3125 4.585938 -1.613281 5.578125 -1.09375 C 6.578125 -0.570312 7.710938 -0.3125 8.984375 -0.3125 C 9.660156 -0.3125 10.285156 -0.453125 10.859375 -0.734375 C 11.429688 -1.015625 11.898438 -1.421875 12.265625 -1.953125 C 12.628906 -2.492188 12.8125 -3.15625 12.8125 -3.9375 C 12.8125 -4.65625 12.609375 -5.273438 12.203125 -5.796875 C 11.804688 -6.328125 11.296875 -6.789062 10.671875 -7.1875 C 10.046875 -7.582031 9.382812 -7.925781 8.6875 -8.21875 C 8 -8.519531 7.367188 -8.785156 6.796875 -9.015625 C 5.816406 -9.429688 4.910156 -9.847656 4.078125 -10.265625 C 3.253906 -10.691406 2.59375 -11.238281 2.09375 -11.90625 C 1.601562 -12.570312 1.359375 -13.460938 1.359375 -14.578125 C 1.359375 -16.359375 2.023438 -17.765625 3.359375 -18.796875 C 4.691406 -19.835938 6.488281 -20.359375 8.75 -20.359375 C 9.820312 -20.359375 10.820312 -20.25 11.75 -20.03125 C 12.6875 -19.820312 13.53125 -19.53125 14.28125 -19.15625 L 14.40625 -15.40625 L 14.078125 -15.296875 C 13.484375 -16.773438 12.613281 -17.90625 11.46875 -18.6875 C 10.332031 -19.476562 9.0625 -19.875 7.65625 -19.875 C 6.507812 -19.875 5.535156 -19.550781 4.734375 -18.90625 C 3.941406 -18.257812 3.546875 -17.367188 3.546875 -16.234375 C 3.546875 -15.609375 3.703125 -15.054688 4.015625 -14.578125 C 4.335938 -14.109375 4.757812 -13.703125 5.28125 -13.359375 C 5.8125 -13.015625 6.378906 -12.710938 6.984375 -12.453125 C 7.585938 -12.191406 8.175781 -11.945312 8.75 -11.71875 C 9.476562 -11.425781 10.222656 -11.117188 10.984375 -10.796875 C 11.742188 -10.472656 12.441406 -10.085938 13.078125 -9.640625 C 13.710938 -9.203125 14.21875 -8.675781 14.59375 -8.0625 C 14.976562 -7.445312 15.171875 -6.707031 15.171875 -5.84375 C 15.171875 -4.863281 14.96875 -3.988281 14.5625 -3.21875 C 14.164062 -2.457031 13.628906 -1.816406 12.953125 -1.296875 C 12.285156 -0.773438 11.535156 -0.378906 10.703125 -0.109375 C 9.878906 0.148438 9.054688 0.28125 8.234375 0.28125 Z M 8.234375 0.28125 "/></g></g><g style="fill:#000000;fill-opacity:1;"><g transform="translate(597.902606, 178.994431)"><path style="stroke:none" d="M 5.40625 0 L 5.40625 -0.40625 C 5.894531 -0.5625 6.207031 -0.882812 6.34375 -1.375 C 6.488281 -1.863281 6.5625 -2.625 6.5625 -3.65625 L 6.5625 -19.640625 L 5.671875 -19.640625 C 4.390625 -19.640625 3.382812 -19.421875 2.65625 -18.984375 C 1.925781 -18.554688 1.289062 -17.765625 0.75 -16.609375 L 0.40625 -16.671875 L 0.578125 -20.15625 L 15.578125 -20.15625 L 15.75 -16.671875 L 15.40625 -16.609375 C 14.863281 -17.765625 14.226562 -18.554688 13.5 -18.984375 C 12.769531 -19.421875 11.765625 -19.640625 10.484375 -19.640625 L 9.640625 -19.640625 L 9.640625 -3.65625 C 9.640625 -2.625 9.710938 -1.863281 9.859375 -1.375 C 10.003906 -0.882812 10.316406 -0.5625 10.796875 -0.40625 L 10.796875 0 Z M 5.40625 0 "/></g></g><g style="fill:#000000;fill-opacity:1;"><g transform="translate(620.992122, 178.994431)"><path style="stroke:none" d="M -0.609375 0 L -0.609375 -0.40625 C -0.160156 -0.5625 0.253906 -0.859375 0.640625 -1.296875 C 1.035156 -1.734375 1.425781 -2.429688 1.8125 -3.390625 L 7.203125 -16.765625 C 7.410156 -17.296875 7.390625 -17.8125 7.140625 -18.3125 L 6.765625 -19.125 L 9.59375 -20.390625 L 16.734375 -3.375 C 17.128906 -2.425781 17.515625 -1.734375 17.890625 -1.296875 C 18.265625 -0.859375 18.617188 -0.5625 18.953125 -0.40625 L 18.953125 0 L 13.703125 0 L 13.703125 -0.40625 C 14.179688 -0.5625 14.359375 -0.859375 14.234375 -1.296875 C 14.109375 -1.734375 13.847656 -2.425781 13.453125 -3.375 L 11.71875 -7.515625 L 4.03125 -7.515625 L 2.359375 -3.390625 C 1.972656 -2.429688 1.816406 -1.722656 1.890625 -1.265625 C 1.972656 -0.804688 2.253906 -0.519531 2.734375 -0.40625 L 2.734375 0 Z M 4.203125 -7.984375 L 11.515625 -7.984375 L 7.796875 -16.875 Z M 4.203125 -7.984375 "/></g></g><g style="fill:#000000;fill-opacity:1;"><g transform="translate(646.471076, 178.994431)"><path style="stroke:none" d="M 16.53125 0.234375 L 3.03125 -16.8125 L 3.03125 -5.390625 C 3.03125 -4.210938 3.101562 -3.285156 3.25 -2.609375 C 3.40625 -1.941406 3.644531 -1.445312 3.96875 -1.125 C 4.300781 -0.800781 4.71875 -0.5625 5.21875 -0.40625 L 5.21875 0 L 1.359375 0 L 1.359375 -0.40625 C 1.835938 -0.5625 2.144531 -0.882812 2.28125 -1.375 C 2.425781 -1.863281 2.5 -2.625 2.5 -3.65625 L 2.5 -16.5 C 2.5 -17.539062 2.398438 -18.304688 2.203125 -18.796875 C 2.015625 -19.285156 1.617188 -19.601562 1.015625 -19.75 L 1.015625 -20.15625 L 4.265625 -20.15625 L 16.359375 -5.015625 L 16.359375 -14.765625 C 16.359375 -15.941406 16.28125 -16.863281 16.125 -17.53125 C 15.96875 -18.207031 15.726562 -18.707031 15.40625 -19.03125 C 15.082031 -19.363281 14.671875 -19.601562 14.171875 -19.75 L 14.171875 -20.15625 L 18.0625 -20.15625 L 18.0625 -19.75 C 17.570312 -19.601562 17.253906 -19.285156 17.109375 -18.796875 C 16.972656 -18.304688 16.90625 -17.539062 16.90625 -16.5 L 16.90625 0.234375 Z M 16.53125 0.234375 "/></g></g><g style="fill:#000000;fill-opacity:1;"><g transform="translate(672.497022, 178.994431)"><path style="stroke:none" d="M 5.40625 0 L 5.40625 -0.40625 C 5.894531 -0.5625 6.207031 -0.882812 6.34375 -1.375 C 6.488281 -1.863281 6.5625 -2.625 6.5625 -3.65625 L 6.5625 -19.640625 L 5.671875 -19.640625 C 4.390625 -19.640625 3.382812 -19.421875 2.65625 -18.984375 C 1.925781 -18.554688 1.289062 -17.765625 0.75 -16.609375 L 0.40625 -16.671875 L 0.578125 -20.15625 L 15.578125 -20.15625 L 15.75 -16.671875 L 15.40625 -16.609375 C 14.863281 -17.765625 14.226562 -18.554688 13.5 -18.984375 C 12.769531 -19.421875 11.765625 -19.640625 10.484375 -19.640625 L 9.640625 -19.640625 L 9.640625 -3.65625 C 9.640625 -2.625 9.710938 -1.863281 9.859375 -1.375 C 10.003906 -0.882812 10.316406 -0.5625 10.796875 -0.40625 L 10.796875 0 Z M 5.40625 0 "/></g></g></g></svg>